<svg width="32" height="28" viewBox="0 0 32 28" fill="none" xmlns="http://www.w3.org/2000/svg">
<path d="M16.6494 27.6708C25.1273 27.6708 31.7092 21.4765 31.3506 13.8354C30.9919 6.19433 23.8285 0 15.3506 0C6.87269 0 0.290752 6.19433 0.649412 13.8354C1.00807 21.4765 8.17152 27.6708 16.6494 27.6708Z" fill="#77BF00"/>
<path d="M19.8081 7.85416C18.8939 7.48228 17.8107 7.46807 16.2384 7.81277L16.214 7.81768L15.4522 5.25298L13.8562 5.60539L14.621 8.17479C14.1451 8.28409 13.6198 8.40445 13.1051 8.5279L12.3406 5.93744L10.7421 6.28795L11.5005 8.88561C10.9422 9.02873 8.22956 9.58805 8.22956 9.58805L8.64426 11.0981L10.7166 10.6822L12.9488 18.239L10.896 18.6535L11.327 20.1899C11.327 20.1899 14.0435 19.6599 14.6617 19.5505L15.4249 22.1625L17.0209 21.8101L16.2624 19.2376C16.7994 19.1384 17.3321 19.0165 17.7991 18.9263L18.5412 21.4851L20.1372 21.1327L19.3999 18.6153C21.1486 18.1898 22.2928 17.5998 22.8926 16.7996C23.1446 16.4523 23.3107 16.0636 23.3805 15.658C23.4502 15.2524 23.422 14.8388 23.2978 14.4431C22.8367 12.8654 21.2358 12.3251 20.0065 12.3307L19.9992 12.2999C21.1588 11.6062 21.6729 10.5369 21.3729 9.51302C21.1273 8.67172 20.5602 8.12234 19.8081 7.85416ZM19.1181 15.2101C19.3876 16.1323 18.7116 17.0008 17.2165 17.331L15.9369 17.6099L15.0342 14.5377C15.4269 14.3807 15.8372 14.259 16.2587 14.1746C17.6855 13.865 18.7918 14.0909 19.1181 15.2101V15.2101ZM17.9087 10.7282C17.9866 10.9749 17.989 11.2348 17.9156 11.4826C17.8422 11.7303 17.6955 11.9572 17.49 12.1411C17.164 12.4551 16.6669 12.7043 16.0131 12.8472L16.004 12.8517L14.7314 13.1302L13.8314 10.0566C14.224 9.90112 14.6339 9.7807 15.0548 9.69725C15.0603 9.69454 15.0639 9.69273 15.0693 9.69002C15.7114 9.55308 16.2851 9.5233 16.7524 9.63424C17.3213 9.77066 17.7324 10.1173 17.9087 10.7282V10.7282Z" fill="white"/>
</svg>
