<svg width="200" height="199" viewBox="0 0 200 199" fill="none" xmlns="http://www.w3.org/2000/svg">
<g clip-path="url(#clip0_1_1365)">
<path d="M100.373 140.059C63.6571 140.059 33.8232 110.303 33.8232 73.7048V0H167.078L166.961 73.5484C166.922 110.225 137.049 140.059 100.373 140.059ZM39.2582 5.4741V73.7048C39.2582 107.292 66.6678 134.585 100.334 134.585C134.038 134.585 161.448 107.214 161.448 73.5484L161.565 5.4741H39.2582Z" fill="#D51820"/>
<path d="M42.3075 104.673C28.7005 104.673 17.5568 100.059 10.0886 91.3003C3.83246 83.9102 0.391602 73.8223 0.391602 62.8741V17.8301H36.9898V23.3042H5.8657V62.8741C5.8657 79.6092 15.4063 99.1986 42.3466 99.1986V104.673H42.3075Z" fill="#D51820"/>
<path d="M159.021 104.673V99.1986C189.911 99.1986 193.274 73.8223 193.274 62.8741V23.3042H165.708V17.8301H198.748V62.8741C198.748 70.7724 197.262 82.0725 190.224 91.183C183.264 100.137 172.785 104.673 159.021 104.673Z" fill="#D51820"/>
<path d="M158.199 195.621H152.725V166.295H48.6001V195.621H43.126V160.821H158.199V195.621Z" fill="#D51820"/>
<path d="M82.9282 136.382H77.4541V162.227H82.9282V136.382Z" fill="#D51820"/>
<path d="M123.908 136.382H118.434V162.227H123.908V136.382Z" fill="#D51820"/>
<path d="M199.999 193.314H-0.000976562V198.788H199.999V193.314Z" fill="#D51820"/>
</g>
<defs>
<clipPath id="clip0_1_1365">
<rect width="200" height="198.788" fill="white"/>
</clipPath>
</defs>
</svg>
