<svg width="200" height="201" viewBox="0 0 200 201" fill="none" xmlns="http://www.w3.org/2000/svg">
<g clip-path="url(#clip0_1_1382)">
<path d="M132.782 49.3027L112.524 124.88L117.88 126.315L138.137 50.7381L132.782 49.3027Z" fill="#D51820"/>
<path d="M57.4482 125.71H23.1953V119.333C23.1953 104.269 31.5121 95.4713 38.8508 87.7106C45.0657 81.1369 50.4328 75.4622 50.4328 66.9878C50.4328 56.4824 46.0713 55.0667 41.8084 55.0667C39.7263 55.0667 33.397 55.0667 33.397 66.6684V71.7751H27.8762V66.6684C27.8762 55.7884 32.9554 49.5459 41.8084 49.5459C48.2599 49.5459 55.9536 52.5705 55.9536 66.9878C55.9536 77.6587 49.297 84.6939 42.8613 91.5002C35.909 98.8587 28.7161 106.485 28.7161 119.333V120.189H57.4482V125.71Z" fill="#D51820"/>
<path d="M94.3586 125.938H88.8378V114.932H58.623V106.99L84.2989 51.3203H94.3586V109.411H104.789V114.932H94.3586V125.938ZM64.1439 109.411H88.8378V56.8411H87.8322L64.1439 108.201V109.411Z" fill="#D51820"/>
<path d="M142.891 50.1611V55.9738H170.357L149.149 126.81H155.443L176.777 55.4454L176.8 55.3625V50.1611H142.891Z" fill="#D51820"/>
<path d="M185.626 200.805L139.993 177.988H0V-0.00390625H199.996V177.988H185.626V200.805ZM5.52083 172.467H141.298L180.105 191.873V172.467H194.475V5.51693H5.52083V172.467Z" fill="#D51820"/>
</g>
<defs>
<clipPath id="clip0_1_1382">
<rect width="200" height="200.804" fill="white"/>
</clipPath>
</defs>
</svg>
