<svg width="34" height="34" viewBox="0 0 34 34" fill="none" xmlns="http://www.w3.org/2000/svg">
<path d="M16.6934 33.3867C25.9128 33.3867 33.3867 25.9128 33.3867 16.6934C33.3867 7.47387 25.9128 0 16.6934 0C7.47387 0 0 7.47387 0 16.6934C0 25.9128 7.47387 33.3867 16.6934 33.3867Z" fill="#907EFF"/>
<path d="M21.8358 18.4163C21.4726 18.3296 21.098 18.2956 20.7244 18.3155C20.4532 18.3265 20.1847 18.26 19.9527 18.1243C19.7208 17.9885 19.5358 17.7897 19.4211 17.5528L19.3067 17.3235C19.202 17.112 19.1568 16.8778 19.1755 16.6442C19.1942 16.4106 19.2761 16.1858 19.4131 15.9922L19.6478 15.6615C19.775 15.478 19.948 15.3283 20.1511 15.2261C20.3541 15.124 20.5806 15.0726 20.8096 15.0768C21.1278 15.0861 21.4458 15.0567 21.7563 14.9892C23.4075 14.6343 24.6627 13.2627 24.7897 11.6387C24.8339 11.0824 24.7477 10.5237 24.5376 10.0038C24.3275 9.48383 23.9989 9.01597 23.5759 8.6347C23.1528 8.25344 22.6463 7.96851 22.0936 7.80094C21.541 7.63337 20.9563 7.58745 20.3827 7.66655C18.8013 7.87596 17.2823 9.36992 17.0928 10.8964C16.982 11.7566 17.1875 12.6269 17.6738 13.3564C17.9834 13.8204 17.9908 14.4128 17.6572 14.8608L17.355 15.2675C17.2243 15.4433 17.0515 15.5861 16.8512 15.6837C16.6509 15.7814 16.4291 15.8311 16.2046 15.8285V15.8285C15.948 15.8255 15.6974 15.7538 15.4808 15.6214C15.2642 15.489 15.0901 15.3012 14.978 15.079C14.6001 14.3238 13.9684 13.7135 13.1854 13.347C12.4023 12.9805 11.5137 12.8792 10.6634 13.0595C9.81307 13.2399 9.05089 13.6913 8.50024 14.3407C7.9496 14.9901 7.64275 15.7994 7.62936 16.6377C7.61598 17.4759 7.89686 18.2939 8.42651 18.9593C8.95616 19.6247 9.70357 20.0984 10.5477 20.3039C11.3919 20.5093 12.2833 20.4344 13.0777 20.0912C13.8721 19.748 14.5229 19.1567 14.9248 18.413C15.0431 18.202 15.219 18.026 15.4335 17.9042C15.6481 17.7825 15.8931 17.7194 16.1422 17.722H16.279C16.5007 17.7219 16.7193 17.7729 16.9164 17.8707C17.1135 17.9685 17.2835 18.1102 17.4122 18.2841L17.6234 18.5695C17.9542 19.0159 17.9502 19.6039 17.6492 20.0695C17.1782 20.7978 16.9835 21.6606 17.098 22.5113C17.2943 24.0284 18.815 25.5119 20.3855 25.7202C20.9594 25.7991 21.5444 25.7528 22.0972 25.5848C22.65 25.4168 23.1566 25.1313 23.5794 24.7494C24.0022 24.3675 24.3305 23.8991 24.54 23.3786C24.7495 22.8582 24.8348 22.2991 24.7897 21.7426C24.6627 20.1483 23.4481 18.7982 21.8358 18.4163Z" fill="white"/>
</svg>
