<svg width="200" height="200" viewBox="0 0 200 200" fill="none" xmlns="http://www.w3.org/2000/svg">
<g clip-path="url(#clip0_1_1350)">
<path d="M26.5401 97.1359C24.773 97.1359 22.9273 96.6651 21.0816 95.7235C14.3665 92.3104 10.0861 87.0927 8.319 80.2273C6.59114 79.678 5.21671 78.4226 4.35277 76.5003C2.97834 73.4795 2.3893 70.2626 2.58564 66.9672C2.74272 64.731 3.88154 63.0048 5.64867 62.2202C5.45232 58.4148 5.45232 54.6878 6.70895 50.9609C8.35827 45.9393 12.0103 42.8793 17.2332 42.0162C17.8615 41.9377 18.4113 41.8593 18.9218 41.8201C20.0213 39.5054 22.1812 38.3677 25.4405 38.4462H25.8332C32.1164 38.8385 37.4178 41.0354 41.6196 45.037C46.2927 49.4701 48.2169 55.2371 47.3922 62.181C48.1384 62.5341 48.6881 62.9656 49.0808 63.3971C50.1804 64.5741 50.6909 66.2218 50.6123 68.2618C50.4945 71.0472 50.0233 73.6757 49.1594 76.0295C48.7274 77.2457 47.5101 79.7565 44.7219 80.3842C42.6406 88.0342 37.8497 93.4089 30.3885 96.3905C29.0926 96.9005 27.836 97.1359 26.5401 97.1359ZM8.08339 67.1633C8.08339 67.2026 8.08339 67.2418 8.08339 67.281C7.92631 69.6741 8.35827 71.9887 9.37928 74.1857C9.73271 74.9311 10.0076 74.9703 10.1647 74.9703C10.9893 75.0095 12.9528 75.4411 13.5026 78.0303C14.7199 83.7973 18.0186 87.9558 23.5949 90.7804C25.362 91.6827 26.8542 91.8397 28.3072 91.2512C34.4333 88.8189 38.1246 84.4642 39.6169 77.9519C40.2452 75.088 42.405 74.9311 43.2689 74.9703C43.3867 74.9703 43.4653 74.9703 43.4653 74.9703C43.4653 74.9703 43.7009 74.8134 43.9365 74.1072C44.6041 72.2241 44.9968 70.2233 45.0753 67.9872C45.0753 67.5556 45.0361 67.2418 44.9968 67.1241C44.9575 67.1241 44.8397 67.0849 44.7612 67.0849C43.3475 67.0456 42.5621 66.3002 42.2479 65.8687C41.816 65.3195 41.384 64.3779 41.6982 63.0048C41.7374 62.9264 41.7374 62.8087 41.7374 62.691C41.7374 62.5733 41.7767 62.4556 41.7767 62.3379C42.6406 56.7279 41.3447 52.334 37.8105 48.9209C34.5511 45.8216 30.5456 44.1739 25.5584 43.8601C25.4798 43.8601 25.362 43.8601 25.2835 43.8601C24.1446 43.8208 23.9483 44.017 23.9483 44.017C23.9483 44.017 23.8305 44.1347 23.752 44.5662C23.6734 44.9978 23.0451 47.1555 20.3355 47.1555C20.2962 47.1555 20.257 47.1555 20.2177 47.1555C19.5894 47.1555 18.9218 47.2339 18.0971 47.3516C14.8378 47.8616 12.9528 49.4701 11.9318 52.5694C10.8715 55.7471 10.9893 59.1209 11.225 62.9264C11.382 66.1041 9.37928 66.9279 8.08339 67.1633ZM47.0781 64.221C47.0781 64.2602 47.0781 64.2602 47.0781 64.221C47.0781 64.2602 47.0781 64.2602 47.0781 64.221Z" fill="#D51820"/>
<path d="M5.49286 142.016H-0.00488281V109.886L16.1349 97.9989V91.4473H21.6327V100.784L5.49286 112.671V142.016Z" fill="#D51820"/>
<path d="M173.567 97.1359C171.8 97.1359 169.955 96.6651 168.109 95.7235C161.394 92.3104 157.113 87.0927 155.346 80.2273C153.618 79.678 152.244 78.4226 151.38 76.5003C150.006 73.4795 149.417 70.2626 149.613 66.9672C149.77 64.731 150.909 63.0048 152.676 62.2202C152.48 58.4148 152.48 54.6878 153.736 50.9609C155.386 45.9393 159.038 42.8793 164.261 42.0162C164.889 41.9377 165.439 41.8593 165.949 41.8201C167.049 39.5054 169.209 38.3677 172.468 38.4462H172.861C179.144 38.8385 184.445 41.0354 188.647 45.037C193.32 49.4701 195.244 55.2371 194.42 62.181C195.166 62.5341 195.716 62.9656 196.108 63.3971C197.208 64.5741 197.718 66.2218 197.64 68.2618C197.522 71.0472 197.051 73.6757 196.187 76.0295C195.755 77.2457 194.537 79.7565 191.749 80.3842C189.668 88.0342 184.877 93.4089 177.416 96.3905C176.12 96.9005 174.824 97.1359 173.567 97.1359ZM155.071 67.1633C155.071 67.2026 155.071 67.2418 155.071 67.281C154.914 69.6741 155.346 71.9887 156.367 74.1857C156.721 74.9311 156.996 74.9703 157.153 74.9703C157.977 75.0095 159.941 75.4411 160.491 78.0303C161.708 83.7973 165.007 87.9558 170.583 90.7804C172.35 91.6827 173.842 91.8397 175.295 91.2512C181.421 88.8189 185.113 84.4642 186.605 77.9519C187.233 75.088 189.393 74.9311 190.257 74.9703C190.375 74.9703 190.453 74.9703 190.453 74.9703C190.453 74.9703 190.689 74.8134 190.925 74.1072C191.592 72.2241 191.985 70.2233 192.063 67.9872C192.063 67.5556 192.024 67.2418 191.985 67.1241C191.946 67.1241 191.828 67.0849 191.749 67.0849C190.336 67.0456 189.55 66.3002 189.236 65.8687C188.804 65.3195 188.372 64.3779 188.686 63.0048C188.726 62.9264 188.726 62.8087 188.726 62.691C188.726 62.5733 188.765 62.4556 188.765 62.3379C189.629 56.6886 188.333 52.334 184.799 48.9209C181.539 45.8216 177.534 44.1739 172.546 43.8601C172.468 43.8601 172.35 43.8601 172.272 43.8601C171.133 43.8208 170.936 44.017 170.936 44.017C170.936 44.017 170.819 44.1347 170.74 44.5662C170.661 44.9978 169.994 47.1947 167.284 47.1555C166.656 47.1555 165.949 47.1947 165.085 47.3516C161.826 47.8616 159.941 49.4701 158.92 52.5694C157.86 55.7471 157.977 59.1209 158.213 62.9264C158.37 66.1041 156.367 66.9279 155.071 67.1633ZM194.066 64.221C194.066 64.2602 194.066 64.2602 194.066 64.221C194.066 64.2602 194.066 64.2602 194.066 64.221ZM191.946 61.6317C191.985 61.6317 191.985 61.6317 191.946 61.6317C191.985 61.6317 191.985 61.6317 191.946 61.6317Z" fill="#D51820"/>
<path d="M199.997 142.016H194.499V112.671L178.359 100.784V91.4473H183.857V97.9989L199.997 109.886V142.016Z" fill="#D51820"/>
<path d="M99.703 94.311C96.8756 94.311 93.9696 93.6048 90.9851 92.1925C79.165 86.6217 71.7823 77.9516 69.0334 66.4177C66.0097 65.9469 63.5749 64.0638 62.0827 61.0038C59.7265 56.2176 58.7448 51.1176 59.0589 45.8998C59.2946 42.369 61.3366 39.8582 64.6352 39.0736C64.2425 32.4043 64.0854 25.9312 66.3238 19.5365C69.0334 11.7688 74.806 7.21799 83.4061 5.92336C84.9769 5.68798 86.3513 5.57028 87.6079 5.53105C89.7678 -0.157452 95.4226 -0.0397586 97.6609 -0.000527561C97.7395 -0.000527561 97.818 -0.000527561 97.9358 -0.000527561H98.2107H98.2893C109.088 0.62717 117.846 4.04027 125.071 10.4349C133.239 17.6927 136.459 27.3043 134.574 38.9952C136.145 39.3482 137.441 40.0544 138.423 41.1529C139.915 42.7613 140.622 45.0367 140.465 47.8614C140.268 52.3337 139.405 56.5314 137.952 60.3369C137.088 62.6123 134.967 66.2215 130.294 66.5354C126.956 79.3639 118.67 88.3478 105.633 93.2125C103.708 93.9579 101.745 94.311 99.703 94.311ZM88.3933 11.0234C87.176 11.0234 85.8408 11.1411 84.2307 11.3765C77.5942 12.3573 73.5494 15.535 71.5074 21.3804C69.5439 26.9512 69.7403 32.7966 70.133 39.2698C70.2115 40.3682 70.4078 43.7421 66.1667 44.3698C65.185 44.5267 64.5959 44.8406 64.5174 46.2529C64.2425 50.5291 65.0672 54.6484 66.9914 58.5715C68.0124 60.6507 69.3083 60.9646 70.2115 61.043C71.7037 61.1215 73.5887 61.8276 74.217 64.6915C76.5339 74.8916 82.7385 82.267 93.302 87.2494C97.0719 89.0148 100.449 89.2894 103.63 88.1125C115.254 83.7578 122.244 76.0685 125.071 64.613C125.66 62.1415 127.113 60.9646 129.351 61.0822C130.451 61.1607 131.747 61.0038 132.768 58.3753C134.064 55.0799 134.731 51.5491 134.928 47.626C134.967 46.3314 134.771 45.3506 134.339 44.8798C133.985 44.4875 133.278 44.2521 132.297 44.2129C130.726 44.1737 129.862 43.4283 129.391 42.8398C128.92 42.2513 128.448 41.1921 128.841 39.5836C128.88 39.4267 128.92 39.1913 128.959 38.9559C128.998 38.799 128.998 38.6028 129.037 38.4459C130.726 28.442 128.213 20.635 121.341 14.5542C115.175 9.02262 107.518 6.08029 98.0536 5.49182H97.9751C97.818 5.49182 97.7002 5.49182 97.5431 5.49182C93.8125 5.41336 93.0271 6.19798 92.5952 8.15954C92.3988 9.02262 91.6134 11.0234 88.5897 11.0234C88.5111 11.0234 88.4326 11.0234 88.3933 11.0234Z" fill="#D51820"/>
<path d="M183.308 199.999L164.851 117.261C154.641 113.338 116.903 99.097 116.51 98.94L114.743 98.2731V82.8945H120.241V94.4677C128.33 97.5277 161.553 110.082 168.228 112.671L169.603 113.22L188.688 198.822L183.308 199.999Z" fill="#D51820"/>
<path d="M17.1202 199.999L11.7402 198.822L30.786 113.22L32.1604 112.671C38.8363 110.082 72.1369 97.5277 80.2264 94.4677V82.8945H85.7242V98.2731L83.957 98.94C83.5643 99.097 45.7477 113.338 35.5376 117.261L17.1202 199.999Z" fill="#D51820"/>
<path d="M59.4138 168.025H53.916V199.41H59.4138V168.025Z" fill="#D51820"/>
<path d="M140.503 168.025H135.005V199.41H140.503V168.025Z" fill="#D51820"/>
<path d="M99.703 128.246L80.6572 97.8419L85.291 94.9388L99.8208 118.085L115.175 94.8604L119.77 97.9204L99.703 128.246Z" fill="#D51820"/>
</g>
<defs>
<clipPath id="clip0_1_1350">
<rect width="200" height="200" fill="white"/>
</clipPath>
</defs>
</svg>
