<svg width="200" height="231" viewBox="0 0 200 231" fill="none" xmlns="http://www.w3.org/2000/svg">
<g clip-path="url(#clip0_1_1339)">
<path d="M99.9723 230.302L98.7895 229.841C73.7959 219.796 53.4308 208.215 38.2598 195.352C24.7345 183.872 15.0148 171.061 9.30635 157.327C0.563745 136.162 1.18087 112.742 11.1577 85.6836C23.1402 53.1419 3.80365 39.5103 2.98082 38.9466L-0.00195312 36.8967L2.36369 34.1806L32.6543 -0.000976562L35.0199 2.10014C35.0713 2.15139 42.9397 9.01846 54.6136 12.3495C69.9903 16.7055 84.5442 13.2719 97.9152 2.04889L99.9723 0.306504L102.029 2.04889C115.452 13.3232 130.109 16.7567 145.537 12.2983C157.159 8.91596 164.822 2.20263 164.925 2.15139L167.29 0.0502702L199.998 36.9992L197.015 38.9978C196.141 39.5615 176.856 53.2444 188.787 85.7349C198.712 112.793 199.329 136.213 190.587 157.378C184.93 171.112 175.21 183.872 161.633 195.403C146.462 208.266 126.149 219.899 101.104 229.892L99.9723 230.302ZM9.25493 35.9743C11.4663 38.0754 14.6548 41.6627 17.1747 46.8386C21.0832 54.8331 24.2202 68.4647 17.1233 87.836C7.76354 113.357 7.09499 135.291 15.2205 154.918C26.4316 182.13 54.9736 205.242 99.9723 223.486C144.971 205.242 173.513 182.13 184.724 154.918C192.798 135.291 192.181 113.357 182.821 87.836C175.724 68.4647 178.862 54.8843 182.77 46.8386C185.29 41.6114 188.478 38.0754 190.69 35.9743L166.622 8.81347C163.176 11.3758 156.336 15.7318 147.285 18.3454C135.611 21.7277 118.126 22.6501 99.9209 8.50599C81.7671 22.6501 64.2819 21.7277 52.608 18.3454C43.6082 15.7318 36.7684 11.3246 33.2714 8.81347L9.25493 35.9743Z" fill="#D51820"/>
<path d="M103.167 152.817H96.79V173.162H103.167V152.817Z" fill="#D51820"/>
<path d="M103.167 46.8906H96.79V67.2356H103.167V46.8906Z" fill="#D51820"/>
<path d="M99.0977 154.304C94.9322 154.304 90.8694 153.74 87.0638 152.612C83.3097 151.485 80.0183 149.794 77.2413 147.488C74.4642 145.182 72.15 142.312 70.4529 138.981C69.5272 137.136 68.8072 135.086 68.293 132.831L74.5156 131.499C74.8756 133.19 75.4413 134.779 76.1099 136.111C77.447 138.673 79.1441 140.877 81.304 142.619C83.4125 144.362 85.9839 145.694 88.9152 146.565C92.1037 147.539 95.5493 148 99.0977 148C103.109 148 106.915 147.59 110.463 146.719C113.6 145.95 116.377 144.772 118.589 143.234C120.646 141.799 122.291 139.955 123.526 137.597C124.914 135.035 125.531 132.267 125.326 129.398C125.068 125.503 123.371 122.941 119.103 119.815C117.046 118.277 114.423 116.893 111.132 115.51C107.737 114.126 104.395 112.794 101.258 111.666C98.0692 110.59 94.9322 109.36 91.9494 108.079C88.8123 106.747 85.9839 105.312 83.4125 103.826C80.3783 102.032 77.8584 100.033 75.9556 97.8296C73.3328 94.8061 71.8929 91.1163 71.8929 87.1191C71.8929 80.7132 74.8242 75.3835 80.3783 71.6938C85.0067 68.619 91.0751 67.1328 98.9949 67.1328C105.475 67.1328 111.286 68.3115 116.274 70.6176C119 71.8988 123.988 75.0248 126.56 81.8406L120.594 84.0443C118.794 79.3295 115.452 77.1772 113.6 76.3572C109.435 74.4099 104.498 73.4362 98.9949 73.4362C92.4122 73.4362 87.4752 74.5636 83.9268 76.921C80.1726 79.432 78.2698 82.8656 78.2698 87.0678C78.2698 89.4764 79.1441 91.7825 80.7383 93.6274C82.1783 95.3185 84.1839 96.856 86.601 98.2909C88.9152 99.6233 91.538 100.956 94.4179 102.186C97.2464 103.416 100.281 104.543 103.366 105.619C106.658 106.798 110.052 108.13 113.549 109.565C117.303 111.103 120.337 112.742 122.857 114.587C126.92 117.56 131.188 121.608 131.651 128.885C131.908 132.985 131.085 136.88 129.08 140.518C127.331 143.747 125.068 146.258 122.188 148.308C119.257 150.358 115.812 151.844 111.852 152.766C107.943 153.842 103.623 154.304 99.0977 154.304Z" fill="#D51820"/>
</g>
<defs>
<clipPath id="clip0_1_1339">
<rect width="200" height="230.303" fill="white"/>
</clipPath>
</defs>
</svg>
