<svg width="33" height="30" viewBox="0 0 33 30" fill="none" xmlns="http://www.w3.org/2000/svg">
<path d="M16.8543 30C25.3372 30 32.1009 23.2843 31.9615 15C31.8221 6.71573 24.8324 0 16.3494 0C7.86652 0 1.10275 6.71573 1.24215 15C1.38155 23.2843 8.37132 30 16.8543 30Z" fill="#F7931A"/>
<path d="M22.7021 11.6263C22.1429 10.8535 21.2413 10.3357 19.7277 9.92491L19.7044 9.91809L20.5027 7.17028L18.9649 6.75563L18.1666 9.50928C17.7056 9.38955 17.197 9.25718 16.6956 9.13259L17.506 6.35947L15.9671 5.94189L15.1476 8.71891C14.5985 8.59237 12.007 7.85066 12.007 7.85066L11.5086 9.45282L13.482 10.03L11.1195 18.1206L9.16327 17.5512L8.66382 19.1855C8.66382 19.1855 11.2421 19.9564 11.8226 20.1423L10.999 22.9349L12.5368 23.3496L13.3422 20.5959C13.8488 20.7536 14.3644 20.8879 14.8072 21.0213L13.9957 23.7545L15.5335 24.1691L16.3258 21.4768C18.0328 21.8944 19.3245 21.8769 20.2768 21.4096C20.6832 21.203 21.0406 20.9177 21.3265 20.5717C21.6125 20.2258 21.8208 19.8267 21.9383 19.3996C22.4357 17.7128 21.3942 16.463 20.3589 15.8955L20.37 15.8634C21.7326 15.7563 22.7639 14.9981 23.0861 13.9031C23.3515 13.0037 23.1833 12.2269 22.7021 11.6263ZM17.9984 18.1683C17.7076 19.1544 16.653 19.6498 15.2124 19.2614L13.9815 18.9256L14.946 15.6386C15.3638 15.675 15.7766 15.7527 16.1779 15.8702C17.5496 16.2459 18.3519 16.9721 17.9984 18.1683V18.1683ZM19.4957 13.4232C19.4228 13.6896 19.279 13.9333 19.0785 14.1302C18.878 14.3271 18.6276 14.4706 18.3519 14.5464C17.9021 14.6876 17.3449 14.6886 16.7158 14.5172H16.7057L15.4809 14.1844L16.4484 10.8973C16.8652 10.9351 17.277 11.0137 17.6772 11.1319C17.6833 11.1319 17.6874 11.1319 17.6934 11.1319C18.3094 11.3032 18.8078 11.5426 19.1381 11.8638C19.5393 12.2561 19.6902 12.771 19.4957 13.4232V13.4232Z" fill="white"/>
</svg>
